<svg width="1920" height="1080" viewBox="0 0 1920 1080" fill="none" xmlns="http://www.w3.org/2000/svg">
<g clip-path="url(#clip0_599_67)">
<path d="M913.04 106.001C913.208 74.9016 913.444 10.188 913.04 0.128906H1020.28L913.04 106.001Z" fill="#8E9AAF"/>
<path d="M913.107 832.729V468.289L1094.86 650.362V652.768L915.238 832.729H913.107Z" fill="#8E9AAF"/>
<path d="M978.053 1079.97L913.053 1014.83L1094.93 1015.17V1079.97H978.053Z" fill="#8E9AAF"/>
<path d="M1095.4 1014.83V833.155L1275.91 1014.83H1095.4Z" fill="#8E9AAF"/>
<path d="M1459.2 832.418L1277.66 650.889L1459.2 650.743V832.418Z" fill="#8E9AAF"/>
<path d="M1095.09 1014.83L913.053 833.051L1095.09 832.905V1014.83Z" fill="#CBC0D3"/>
<path d="M1823.9 1015.14L1641.6 832.528L1823.9 832.417V1015.14Z" fill="#8E9AAF"/>
<path d="M1641.93 1015.47L1459.68 832.75H1641.61L1641.93 1015.47Z" fill="#0074D9"/>
<path d="M1277.12 286.271L1094.86 103.555H1276.79L1277.12 286.271Z" fill="#0074D9"/>
<path d="M1641.61 103.555L1823.87 286.271H1641.94L1641.61 103.555Z" fill="#0074D9"/>
<path d="M1642.09 286.27L1824.34 468.986L1642.09 468.586V286.27Z" fill="#FFDC00"/>
<path d="M1824.04 834.114L2006.8 650.743L1824.54 651.143L1824.04 834.114Z" fill="#FFDC00"/>
<path d="M1824.13 1015.81L2010.88 835.529L1824.54 832.143L1824.13 1015.81Z" fill="#FFDC00"/>
<path d="M1641.79 286.271L1459.36 104.13H1641.79V286.271Z" fill="#FFDC00"/>
<path d="M1277.12 -78.4117L1459.38 104.304L1277.12 103.904V-78.4117Z" fill="#FFDC00"/>
<path d="M1823.93 -78.715L2006.43 104.072L1823.93 103.671V-78.715Z" fill="#FFDC00"/>
<path d="M1277.37 1014.28L1459.62 1197H1277.69L1277.37 1014.28Z" fill="#0074D9"/>
<path d="M2005.57 103.408L1823.31 286.124H2005.24L2005.57 103.408Z" fill="#0074D9"/>
<path d="M1277.36 1015.75L1459.76 832.76L1277.73 832.911L1277.36 1015.75Z" fill="#0074D9"/>
<path d="M1459.69 470.376L1642.68 286.403L1459.69 286.271V470.376Z" fill="#0074D9"/>
<path d="M2006.55 1197.33L1823.95 1015.03L2006.55 1014.6V1197.33Z" fill="#8E9AAF"/>
<path d="M1823.88 651.86L1641.59 832.527L1823.88 832.423V651.86Z" fill="#3D9970"/>
<path d="M1823.9 470.075L1641.61 650.743L1823.9 650.638V470.075Z" fill="#3D9970"/>
<path d="M1641.9 470.075L1459.61 650.743L1641.9 650.638V470.075Z" fill="#CBC0D3"/>
<path d="M1823.95 468.629L2006.9 650.743L1823.95 650.612V468.629Z" fill="#CBC0D3"/>
<path d="M1459.95 106.001L1277.66 286.668L1459.95 286.564V106.001Z" fill="#3D9970"/>
<path d="M1459.31 650.389L1641.6 832.52L1459.2 832.52L1459.31 650.389Z" fill="#3D9970"/>
<path d="M1641.72 -77.8932L1824.01 104.238L1641.61 104.238L1641.72 -77.8932Z" fill="#3D9970"/>
<path d="M1277.57 1197.35L1095.28 1015.22L1277.68 1015.22L1277.57 1197.35Z" fill="#3D9970"/>
<path d="M1823.89 466.791L2006.18 286.124L1823.89 286.228V466.791Z" fill="#3D9970"/>
<path d="M913.107 107.699V-256.742L1094.86 -74.6688V-72.263L915.238 107.699H913.107Z" fill="#8E9AAF"/>
<path d="M1459.51 104.023L1460.11 -260.742L1641.86 -78.6688V-76.263L1461.57 104.023H1459.51Z" fill="#8E9AAF"/>
</g>
<defs>
<clipPath id="clip0_599_67">
<rect width="1920" height="1080" fill="white"/>
</clipPath>
</defs>
</svg>
