<svg width="435" height="330" viewBox="0 0 435 330" fill="none" xmlns="http://www.w3.org/2000/svg">
<path d="M376.643 329.685C390.461 329.685 401.663 326.819 401.663 323.285C401.663 319.75 390.461 316.885 376.643 316.885C362.825 316.885 351.623 319.75 351.623 323.285C351.623 326.819 362.825 329.685 376.643 329.685Z" fill="#D1D3D4"/>
<path d="M49.8636 329.784C63.6819 329.784 74.8838 326.919 74.8838 323.384C74.8838 319.85 63.6819 316.984 49.8636 316.984C36.0452 316.984 24.8433 319.85 24.8433 323.384C24.8433 326.919 36.0452 329.784 49.8636 329.784Z" fill="#D1D3D4"/>
<path d="M217.266 309.685C271.472 309.685 315.415 305.924 315.415 301.285C315.415 296.646 271.472 292.885 217.266 292.885C163.06 292.885 119.117 296.646 119.117 301.285C119.117 305.924 163.06 309.685 217.266 309.685Z" fill="#D1D3D4"/>
<path d="M268.323 246.785H166.208V288.685H268.323V246.785Z" fill="white"/>
<path d="M268.323 289.385H166.207C165.8 289.385 165.394 289.085 165.394 288.585V246.685C165.394 246.285 165.699 245.985 166.106 245.885H268.323C268.729 245.885 269.034 246.185 269.136 246.585V288.485C269.136 289.085 268.729 289.385 268.323 289.385ZM167.021 287.885H267.611V247.485H167.021V287.885Z" fill="#231F20"/>
<path d="M134.983 287.984H299.649C301.988 287.984 303.92 289.884 303.92 292.184V297.684C303.92 299.984 301.988 301.884 299.649 301.884H134.983C132.643 301.884 130.711 299.984 130.711 297.684V292.184C130.711 289.884 132.643 287.984 134.983 287.984Z" fill="white"/>
<path d="M299.649 302.486H134.983C132.237 302.486 130 300.286 130 297.586V292.086C130 289.386 132.237 287.186 134.983 287.186H299.649C302.395 287.186 304.633 289.386 304.633 292.086V297.586C304.633 300.286 302.395 302.486 299.649 302.486ZM134.983 288.786C133.051 288.786 131.525 290.286 131.525 292.186V297.686C131.525 299.586 133.051 301.086 134.983 301.086H299.649C301.582 301.086 303.107 299.586 303.107 297.686V292.186C303.107 290.286 301.582 288.786 299.649 288.786H134.983Z" fill="#231F20"/>
<path d="M268.323 246.785V251.385C237.2 254.485 187.465 266.885 166.208 272.385V246.785H268.323Z" fill="#231F20"/>
<path d="M423.428 247.685H11.102C5.10124 247.685 0.219238 242.885 0.219238 236.985V10.9852C0.219238 5.08515 5.10124 0.285156 11.102 0.285156H423.428C429.429 0.285156 434.311 5.08515 434.311 10.9852V236.985C434.311 242.885 429.429 247.585 423.428 247.685ZM11.102 1.68516C5.91491 1.68516 1.74487 5.78515 1.74487 10.8852V236.885C1.74487 241.985 5.91491 246.085 11.102 246.085H423.428C428.615 246.085 432.785 241.985 432.785 236.885V10.8852C432.785 5.78515 428.615 1.68516 423.428 1.68516H11.102Z" fill="#231F20"/>
<path d="M166.207 273.086C166.004 273.086 165.902 272.986 165.699 272.986C165.495 272.886 165.394 272.586 165.394 272.386V246.886C165.394 246.486 165.699 246.186 166.106 246.086H268.323C268.729 246.086 269.034 246.386 269.136 246.786V251.386C269.136 251.786 268.831 252.086 268.424 252.086C237.098 255.186 186.651 267.786 166.512 273.086H166.207ZM167.021 247.586V271.386C187.769 265.986 236.589 253.886 267.611 250.686V247.586H167.021Z" fill="#231F20"/>
<path d="M11.102 0.984375H423.53C429.124 0.984375 433.701 5.48438 433.701 10.9844V236.984C433.701 242.484 429.124 246.984 423.53 246.984H11.102C5.50803 246.984 0.931152 242.484 0.931152 236.984V10.9844C0.931152 5.38438 5.50803 0.984375 11.102 0.984375Z" fill="white"/>
<path d="M428.31 33.5844H1.94794C1.54111 33.5844 1.13428 33.2844 1.13428 32.7844C1.13428 32.2844 1.4394 31.9844 1.94794 31.9844H428.31C428.717 31.9844 429.124 32.2844 429.124 32.7844C429.124 33.2844 428.717 33.5844 428.31 33.5844Z" fill="#231F20"/>
<path d="M218.181 221.186H216.248C215.638 220.886 215.028 220.486 214.316 220.186C185.43 207.286 163.258 188.486 148.612 163.186C141.492 150.886 136.61 137.486 134.068 123.486C132.644 115.686 132.033 107.786 132.237 99.8855C132.339 98.6855 132.745 98.0855 134.169 97.7855C136.204 97.4855 138.136 96.9855 140.17 96.4855C150.036 93.8855 157.867 88.9855 163.156 81.0855C167.123 75.2855 168.954 68.2855 168.445 61.2855C168.343 60.0855 168.75 59.5855 170.174 59.3855C179.328 57.8855 188.482 56.2855 197.635 54.8855C208.213 53.2855 218.994 52.6855 229.674 54.0855C241.37 55.6855 252.965 57.6855 264.56 59.4855C265.78 59.6855 265.984 60.1855 265.984 61.0855C265.882 63.6855 266.085 66.1855 266.39 68.7855C267.916 77.4855 272.9 85.1855 280.223 90.1855C285.817 94.1855 292.428 96.3855 299.446 97.6855C301.683 98.0855 302.09 98.9855 302.192 100.686C302.497 113.186 300.768 125.586 296.903 137.586C286.834 169.886 265.882 195.386 233.335 213.486C228.555 216.286 223.266 218.586 218.181 221.186Z" fill="#D83231"/>
<path d="M176.989 115.984H257.44C261.712 115.984 265.17 119.384 265.17 123.584V168.584C265.17 172.784 261.712 176.184 257.44 176.184H176.989C172.717 176.184 169.259 172.784 169.259 168.584V123.584C169.259 119.384 172.717 115.984 176.989 115.984Z" fill="white"/>
<path d="M241.269 126.685H193.262C191.431 126.685 189.906 125.185 189.906 123.385V104.685C189.906 89.7852 202.111 77.7852 217.265 77.7852C232.42 77.7852 244.625 89.7852 244.625 104.685V123.385C244.625 125.185 243.201 126.685 241.269 126.685ZM196.619 120.085H237.912V104.685C237.912 93.4852 228.657 84.3852 217.265 84.3852C205.874 84.3852 196.619 93.4852 196.619 104.685V120.085Z" fill="white"/>
<path d="M226.298 138.136C227.108 133.23 223.719 128.607 218.729 127.811C213.739 127.014 209.037 130.346 208.227 135.253C207.417 140.159 210.806 144.782 215.796 145.579C220.786 146.375 225.488 143.043 226.298 138.136Z" fill="#D83231"/>
<path d="M219.808 138.484H214.722V159.584H219.808V138.484Z" fill="#D83231"/>
<path d="M23.3073 23.9844C26.3968 23.9844 28.9013 21.5219 28.9013 18.4844C28.9013 15.4468 26.3968 12.9844 23.3073 12.9844C20.2179 12.9844 17.7134 15.4468 17.7134 18.4844C17.7134 21.5219 20.2179 23.9844 23.3073 23.9844Z" fill="#D83231"/>
<path d="M43.0388 23.9844C46.1283 23.9844 48.6328 21.5219 48.6328 18.4844C48.6328 15.4468 46.1283 12.9844 43.0388 12.9844C39.9493 12.9844 37.4448 15.4468 37.4448 18.4844C37.4448 21.5219 39.9493 23.9844 43.0388 23.9844Z" fill="#D1D3D4"/>
<path d="M62.7697 23.9844C65.8592 23.9844 68.3637 21.5219 68.3637 18.4844C68.3637 15.4468 65.8592 12.9844 62.7697 12.9844C59.6803 12.9844 57.1758 15.4468 57.1758 18.4844C57.1758 21.5219 59.6803 23.9844 62.7697 23.9844Z" fill="#D1D3D4"/>
<path d="M290.19 216.585C289.987 216.585 289.783 216.485 289.681 216.385C289.376 216.085 289.376 215.585 289.681 215.285L397.696 103.185C397.899 102.885 398.408 102.785 398.713 102.985C399.018 103.185 399.12 103.685 398.916 103.985C398.916 104.085 398.815 104.085 398.713 104.185L290.699 216.385C290.597 216.585 290.393 216.585 290.19 216.585Z" fill="#D1D3D4"/>
<path d="M290.19 216.585C289.987 216.585 289.783 216.485 289.681 216.385C289.376 216.085 289.376 215.585 289.681 215.285L397.696 103.185C397.899 102.885 398.408 102.785 398.713 102.985C399.018 103.185 399.12 103.685 398.916 103.985C398.916 104.085 398.815 104.085 398.713 104.185L290.699 216.385C290.597 216.585 290.393 216.585 290.19 216.585Z" fill="#D1D3D4"/>
<path d="M98.0631 90.7844C97.8597 90.7844 97.6562 90.6844 97.5545 90.5844C97.2494 90.2844 97.2494 89.7844 97.5545 89.4844L143.628 45.0844C144.035 44.8844 144.442 44.9844 144.646 45.3844C144.747 45.6844 144.747 45.9844 144.646 46.1844L98.5716 90.5844C98.3682 90.6844 98.2665 90.7844 98.0631 90.7844Z" fill="#D1D3D4"/>
<path d="M328.229 118.386C328.026 118.386 327.822 118.286 327.721 118.186C327.415 117.886 327.415 117.386 327.721 117.086L381.728 61.6859C382.033 61.3859 382.44 61.3859 382.745 61.6859C383.05 61.9859 383.05 62.4859 382.745 62.7859L328.738 118.186C328.636 118.286 328.433 118.386 328.229 118.386Z" fill="#D1D3D4"/>
<path d="M376.236 237.885C376.439 235.285 375.829 232.685 374.608 230.285C373.591 228.585 371.964 227.285 371.15 225.485C369.726 222.385 370.743 218.785 370.337 215.385C370.032 212.585 368.811 209.885 366.777 207.885C364.946 206.085 362.709 204.885 360.979 202.985C358.132 199.985 357.318 195.585 355.792 191.785C353.555 186.385 349.588 181.885 344.503 178.785C347.554 184.885 340.536 192.585 343.791 198.585C344.808 200.485 346.74 201.885 347.452 203.885C349.283 208.785 343.282 214.085 345.215 218.885C346.13 221.285 348.774 222.685 349.995 224.985C351.622 228.085 350.3 231.785 350.503 235.285C350.707 240.085 353.656 244.385 357.216 247.785C359.454 249.885 361.895 251.685 364.234 253.585C367.082 255.785 368.302 258.185 370.845 254.585C374.202 249.685 376.134 243.885 376.236 237.885Z" fill="#231F20"/>
<path d="M379.389 240.585C378.473 236.885 377.863 232.785 379.389 229.285C381.118 225.285 385.491 222.485 386 218.185C386.305 215.385 384.881 212.485 385.491 209.685C386.101 206.885 388.339 204.985 390.272 202.985C394.645 198.285 397.289 192.185 397.696 185.785C400.442 189.385 403.29 192.985 404.714 197.285C406.138 201.585 406.24 206.485 403.697 210.185C402.985 211.085 402.375 211.985 401.866 213.085C400.951 215.785 403.392 218.385 404.612 220.985C406.138 223.985 405.731 227.585 403.697 230.285C401.154 233.385 396.374 234.585 395.154 238.285C394.848 239.685 394.747 241.085 394.747 242.485C394.238 247.585 390.577 251.785 385.593 253.185C382.643 253.885 382.643 252.685 382.135 250.285C381.525 247.085 380.202 243.885 379.389 240.585Z" fill="#231F20"/>
<path d="M370.032 213.885C367.896 206.685 367.082 199.285 364.844 192.085C362.912 186.485 360.674 181.085 357.928 175.885L366.98 179.585C369.828 180.785 372.981 182.185 374.405 184.985C376.744 189.785 372.473 195.985 375.015 200.785C375.931 202.485 377.456 203.685 378.575 205.185C381.219 208.885 380.813 213.885 379.389 218.185C378.778 219.985 376.032 229.485 373.591 226.885C372.574 225.785 372.574 221.885 372.167 220.485C371.455 218.285 370.642 216.085 370.032 213.885Z" fill="#231F20"/>
<path d="M374.914 308.885C373.083 297.185 367.489 255.985 367.387 255.585L369.015 255.385C369.116 255.785 374.71 296.985 376.541 308.685L374.914 308.885Z" fill="#231F20"/>
<path d="M377.151 319.985H375.422C375.524 306.085 381.423 252.985 384.78 249.385L386 250.485C383.457 253.185 377.253 304.485 377.151 319.985Z" fill="#231F20"/>
<path d="M380.203 317.284L378.575 317.184C379.898 287.284 373.49 224.384 373.388 223.784L375.016 223.584C375.016 224.284 381.525 287.284 380.203 317.284Z" fill="#231F20"/>
<path d="M359.454 280.686H393.017L390.678 314.086C390.271 319.886 385.389 324.386 379.49 324.386H372.981C367.082 324.386 362.2 319.886 361.793 314.086L359.454 280.686Z" fill="white"/>
<path d="M379.49 325.185H372.981C366.675 325.185 361.488 320.385 360.979 314.185L358.64 280.685C358.64 280.485 358.742 280.285 358.844 280.085C358.945 279.985 359.149 279.885 359.352 279.885H392.916C393.119 279.885 393.323 279.985 393.424 280.085C393.526 280.285 393.628 280.485 393.628 280.685L391.289 314.185C390.983 320.385 385.796 325.185 379.49 325.185ZM360.267 281.485L362.505 314.085C362.912 319.485 367.489 323.685 372.981 323.685H379.49C384.983 323.685 389.56 319.485 389.966 314.085L392.306 281.485H360.267Z" fill="#231F20"/>
<path d="M50.558 238.385C50.7614 235.785 50.1512 233.185 48.9307 230.785C47.9136 229.085 46.2863 227.785 45.4726 225.985C44.0487 222.885 45.0657 219.285 44.6589 215.885C44.3538 213.085 43.1333 210.385 41.0991 208.385C39.2684 206.585 37.0308 205.385 35.3017 203.485C32.4539 200.485 31.6402 196.085 30.1146 192.285C27.877 186.885 23.9104 182.385 18.825 179.285C21.8762 185.385 14.8583 193.085 18.113 199.085C19.1301 200.985 21.0625 202.385 21.7745 204.385C23.6052 209.285 17.6045 214.585 19.5369 219.385C20.4523 221.785 23.0967 223.185 24.3172 225.485C25.9445 228.585 24.6223 232.285 24.8257 235.785C25.0292 240.585 27.9787 244.885 31.5385 248.285C33.7761 250.385 36.2171 252.185 38.5564 254.085C41.4042 256.285 42.6247 258.685 45.1674 255.085C48.5238 250.185 50.4563 244.385 50.558 238.385Z" fill="#231F20"/>
<path d="M53.711 241.085C52.7956 237.385 52.1854 233.285 53.711 229.785C55.44 225.785 59.8135 222.985 60.3221 218.685C60.6272 215.885 59.2033 212.985 59.8135 210.185C60.4238 207.385 62.6613 205.485 64.5938 203.485C68.9673 198.785 71.6117 192.685 72.0185 186.285C74.7647 189.885 77.6125 193.485 79.0364 197.785C80.4603 202.085 80.562 206.985 78.0193 210.685C77.3074 211.585 76.6971 212.485 76.1885 213.585C75.2732 216.285 77.7142 218.885 78.9347 221.485C80.4603 224.485 80.0535 228.085 78.0193 230.785C75.4766 233.885 70.6963 235.085 69.4758 238.785C69.1707 240.185 69.069 241.585 69.069 242.985C68.5604 248.085 64.8989 252.285 59.9152 253.685C56.9656 254.385 56.9657 253.185 56.4571 250.785C55.8469 247.585 54.5247 244.385 53.711 241.085Z" fill="#231F20"/>
<path d="M44.3538 214.385C42.2179 207.185 41.4042 199.785 39.1667 192.585C37.2342 186.985 34.9966 181.585 32.2505 176.385L41.3025 180.085C44.1504 181.285 47.3033 182.685 48.7272 185.485C51.0665 190.285 46.7948 196.485 49.3375 201.285C50.2529 202.985 51.7785 204.185 52.8973 205.685C55.5417 209.385 55.1349 214.385 53.711 218.685C53.1007 220.485 50.3546 229.985 47.9136 227.385C46.8965 226.285 46.8965 222.385 46.4897 220.985C45.7777 218.785 44.964 216.585 44.3538 214.385Z" fill="#231F20"/>
<path d="M49.2359 309.385C47.4051 297.685 41.8112 256.485 41.7095 256.085L43.3368 255.885C43.4385 256.285 49.0325 297.485 50.8632 309.185L49.2359 309.385Z" fill="#231F20"/>
<path d="M51.4737 320.485H49.7446C49.8463 306.585 55.7454 253.485 59.1018 249.885L60.3223 250.985C57.7796 253.685 51.5754 304.985 51.4737 320.485Z" fill="#231F20"/>
<path d="M54.5249 317.784L52.8976 317.684C54.2198 287.784 47.8122 224.884 47.7104 224.284L49.3378 224.084C49.3378 224.784 55.8471 287.784 54.5249 317.784Z" fill="#231F20"/>
<path d="M33.7759 281.186H67.3397L65.0004 314.586C64.5935 320.386 59.7115 324.886 53.8124 324.886H47.3031C41.404 324.886 36.522 320.386 36.1152 314.586L33.7759 281.186Z" fill="white"/>
<path d="M53.8126 325.685H47.3033C40.9974 325.685 35.8103 320.885 35.3017 314.685L32.9624 281.185C32.9624 280.985 33.0641 280.785 33.1658 280.585C33.2675 280.485 33.471 280.385 33.6744 280.385H67.2382C67.4416 280.385 67.645 280.485 67.7467 280.585C67.8484 280.785 67.9501 280.985 67.9501 281.185L65.6108 314.685C65.3057 320.885 60.1186 325.685 53.8126 325.685ZM34.5897 281.985L36.8273 314.585C37.2342 319.985 41.811 324.185 47.3033 324.185H53.8126C59.3049 324.185 63.8818 319.985 64.2886 314.585L66.6279 281.985H34.5897Z" fill="#231F20"/>
</svg>
