<svg width="555" height="252" viewBox="0 0 555 252" fill="none" xmlns="http://www.w3.org/2000/svg">
<path d="M91.0782 197.378H0.778809V161.305L86.3532 26.2988H127.172V164.621H158.146V197.378H127.172V241.009H91.2094V197.378H91.0782ZM91.0782 77.8877H90.4219L37.3973 164.621H91.0782V77.8877Z" fill="#D83231"/>
<path d="M487.45 197.378H397.151V161.305L482.725 26.2988H523.544V164.621H554.518V197.378H523.544V241.009H487.581V197.378H487.45ZM493.75 77.8877H493.094L439.938 164.621H493.619L493.75 77.8877Z" fill="#D83231"/>
<path d="M271.152 37.041C218.39 37.041 175.734 80.1423 175.603 133.455C175.603 186.768 218.258 229.869 271.021 230.002C323.783 230.135 366.439 186.901 366.57 133.588C366.57 80.2749 323.783 37.041 271.152 37.041Z" fill="white"/>
<path d="M271.152 230.929C217.865 230.929 174.684 187.297 174.684 133.586C174.684 79.8757 217.865 36.1113 271.021 36.1113C324.177 36.1113 367.489 79.7431 367.489 133.454C367.489 187.297 324.308 230.796 271.152 230.929ZM271.152 37.968C218.915 37.968 176.653 80.6714 176.653 133.454C176.653 186.236 218.915 228.94 271.152 228.94C323.389 228.94 365.651 186.236 365.651 133.454C365.52 80.804 323.258 38.1006 271.152 37.968Z" fill="#231F20"/>
<path d="M321.158 108.787C323.622 108.787 325.62 105.819 325.62 102.156C325.62 98.4942 323.622 95.5254 321.158 95.5254C318.693 95.5254 316.695 98.4942 316.695 102.156C316.695 105.819 318.693 108.787 321.158 108.787Z" fill="#231F20"/>
<path d="M158.934 104.941L383.107 54.8112L339.008 41.8145C339.008 41.8145 314.989 1.76349 308.689 0.967771C302.389 0.172056 186.496 25.2371 186.496 25.2371L179.146 81.6003L158.934 104.941Z" fill="#231F20"/>
<path d="M315.908 174.432C315.514 174.432 315.251 174.3 315.12 173.902C290.839 132.259 234.927 154.274 234.402 154.407C233.877 154.539 233.352 154.407 233.221 153.876C233.089 153.346 233.221 152.815 233.746 152.683C234.271 152.417 291.758 129.872 316.826 172.973C317.089 173.371 316.958 174.034 316.564 174.299C316.17 174.432 316.039 174.432 315.908 174.432Z" fill="#231F20"/>
<path d="M205.659 240.612L180.328 200.164L291.102 181.066L298.714 219.791L310.002 184.117L366.57 195.389L355.02 240.612H205.659Z" fill="#231F20"/>
<path d="M347.669 152.947L357.907 151.488L363.157 189.948C363.551 192.6 361.713 195.12 358.957 195.518L358.301 195.65C355.676 196.048 353.182 194.192 352.788 191.407L347.669 152.947Z" fill="white"/>
<path d="M357.645 196.581C354.758 196.581 352.264 194.459 351.87 191.542L346.62 153.082C346.62 152.552 346.883 152.154 347.408 152.021L357.645 150.562C357.908 150.562 358.17 150.563 358.301 150.695C358.433 150.828 358.564 151.093 358.695 151.358L363.945 189.818C364.47 193.001 362.239 195.918 359.089 196.449L358.433 196.581C358.17 196.581 357.908 196.581 357.645 196.581ZM348.589 153.745L353.708 191.409C353.97 193.531 355.939 195.123 358.17 194.857L358.826 194.725C360.926 194.459 362.501 192.47 362.239 190.216L357.12 152.684L348.589 153.745Z" fill="#231F20"/>
<path d="M356.313 116.574L339.801 118.883L344.966 156.587L361.478 154.278L356.313 116.574Z" fill="white"/>
<path d="M344.914 157.459C344.651 157.459 344.52 157.459 344.389 157.326C344.258 157.193 344.126 156.928 343.995 156.663L338.876 118.999C338.876 118.734 338.876 118.469 339.008 118.336C339.139 118.203 339.401 118.071 339.664 117.938L356.07 115.684C356.595 115.684 356.989 115.949 357.12 116.479L362.239 154.143C362.239 154.674 361.976 155.072 361.451 155.204L344.914 157.459ZM340.845 119.662L345.701 155.469L360.401 153.48L355.545 117.673L340.845 119.662Z" fill="#231F20"/>
<path d="M354.364 181.859L359.22 181.196C362.37 180.798 365.389 183.053 365.782 186.235L373.132 239.946C373.526 243.129 371.295 246.179 368.145 246.577L363.289 247.24C360.139 247.638 357.12 245.384 356.726 242.201L349.376 188.49C348.851 185.307 351.083 182.257 354.364 181.859Z" fill="white"/>
<path d="M362.501 248.301C359.089 248.301 356.201 245.781 355.807 242.333L348.458 188.622C347.933 184.909 350.557 181.46 354.232 180.93L359.089 180.267C360.926 180.002 362.632 180.532 364.076 181.593C365.52 182.654 366.439 184.378 366.701 186.102L374.051 239.813C374.576 243.526 371.951 246.974 368.276 247.505L363.42 248.168C363.026 248.301 362.764 248.301 362.501 248.301ZM360.007 182.123C359.745 182.123 359.614 182.123 359.351 182.123L354.495 182.787C351.739 183.184 349.901 185.704 350.295 188.489L357.645 242.2C358.039 244.985 360.532 246.842 363.289 246.444L368.145 245.781C370.901 245.383 372.739 242.863 372.345 240.211L364.995 186.5C364.732 185.174 364.076 183.98 363.026 183.184C362.107 182.389 361.057 182.123 360.007 182.123Z" fill="#231F20"/>
<path d="M346.62 152.817C371.048 152.817 390.851 132.807 390.851 108.124C390.851 83.4412 371.048 63.4316 346.62 63.4316C322.192 63.4316 302.389 83.4412 302.389 108.124C302.389 132.807 322.192 152.817 346.62 152.817Z" fill="white"/>
<path d="M346.62 153.744C321.683 153.744 301.602 133.321 301.602 108.123C301.602 82.9255 321.814 62.6348 346.752 62.6348C369.195 62.6348 388.358 79.4774 391.376 101.89C394.789 126.823 377.464 149.898 352.789 153.214C350.689 153.612 348.72 153.744 346.62 153.744ZM346.752 64.4914C344.783 64.4914 342.814 64.6241 340.846 64.8893C317.221 68.2048 300.683 90.2196 303.965 114.224C307.246 138.095 329.033 154.805 352.789 151.49C376.545 148.174 392.951 126.159 389.67 102.155C386.52 80.5384 368.277 64.4914 346.752 64.4914Z" fill="#231F20"/>
<path d="M346.621 144.328C366.409 144.328 382.452 128.119 382.452 108.123C382.452 88.1275 366.409 71.918 346.621 71.918C326.832 71.918 310.79 88.1275 310.79 108.123C310.79 128.119 326.832 144.328 346.621 144.328Z" fill="white"/>
<path d="M346.62 145.257C326.277 145.522 309.608 129.21 309.345 108.654C309.083 89.6893 322.995 73.5097 341.633 71.2552C361.714 68.4702 380.351 82.6605 383.107 102.951C385.864 123.242 371.82 142.074 351.739 144.859C350.033 145.257 348.326 145.257 346.62 145.257ZM346.751 72.8466C345.176 72.8466 343.47 72.9793 341.895 73.1119C322.733 75.7643 309.345 93.6679 312.102 112.898C314.727 132.26 332.445 145.787 351.476 143.002C370.639 140.35 384.026 122.446 381.27 103.216C379.957 93.9331 375.101 85.5781 367.751 79.8754C361.714 75.3664 354.364 72.8466 346.751 72.8466Z" fill="#231F20"/>
<path d="M388.882 208.781C386.52 205.598 383.37 203.078 379.826 201.221C369.326 195.784 357.251 195.784 346.095 199.365C342.158 200.691 334.545 202.415 334.151 207.72C334.151 209.841 335.595 211.698 337.695 212.361C339.664 212.892 341.764 213.024 343.864 212.626C340.976 212.759 337.958 213.024 335.595 214.748C333.233 216.472 332.051 220.053 333.889 222.308C334.808 223.236 335.858 223.899 337.039 224.164C339.664 224.96 342.551 224.827 345.176 224.032C342.289 224.562 339.533 225.491 336.776 226.684C335.201 227.347 333.364 228.673 333.495 230.53C333.626 232.387 335.333 233.05 336.776 233.58C339.926 234.641 343.208 235.304 346.62 235.437C343.733 236.233 340.845 237.028 338.614 238.885C335.07 241.935 334.939 247.903 339.926 249.627C341.501 250.025 343.207 250.29 344.914 250.158C359.614 250.158 377.201 248.301 387.176 235.967C391.901 230.132 394.132 222.042 391.901 215.014C391.376 212.626 390.195 210.505 388.882 208.781Z" fill="white"/>
<path d="M344.914 251.087C343.208 251.22 341.502 250.955 339.796 250.424C337.564 249.761 335.858 247.905 335.464 245.518C335.071 242.733 336.121 239.947 338.221 238.091C339.402 237.162 340.714 236.367 342.158 235.704C340.321 235.438 338.483 234.908 336.646 234.245C334.152 233.449 332.839 232.123 332.708 230.399C332.577 228.675 333.889 226.818 336.514 225.625L337.827 225.094C337.564 225.094 337.171 224.962 336.777 224.829C335.333 224.564 334.021 223.768 333.102 222.707C332.183 221.646 331.79 220.187 332.052 218.728C332.315 216.739 333.364 214.882 335.071 213.689C335.596 213.291 336.252 213.026 336.908 212.628C334.808 211.7 333.364 209.71 333.364 207.323C333.758 201.886 340.452 199.896 344.783 198.57L345.964 198.172C358.302 194.194 370.377 194.99 380.352 200.162C384.027 202.018 387.177 204.671 389.67 207.986C391.114 209.976 392.295 212.097 392.952 214.485C395.183 221.513 393.214 229.868 388.095 236.367C377.595 249.363 359.614 251.087 344.914 251.087ZM343.208 225.492C341.108 226.022 339.139 226.686 337.302 227.614C336.514 228.012 334.414 229.073 334.677 230.399C334.808 231.46 336.252 232.256 337.433 232.653C340.452 233.714 343.733 234.377 347.014 234.51C347.539 234.51 347.933 234.908 347.933 235.438C347.933 235.836 347.671 236.234 347.277 236.367C344.652 237.03 341.764 237.826 339.664 239.682C337.958 241.008 337.171 243.263 337.564 245.385C337.827 247.109 339.139 248.435 340.714 248.833C342.158 249.231 343.733 249.496 345.308 249.363C359.483 249.363 376.939 247.772 386.914 235.438C391.77 229.471 393.477 221.779 391.508 215.28C390.852 213.158 389.802 211.169 388.489 209.445C386.127 206.395 383.239 203.875 379.827 202.151C370.377 197.244 358.696 196.581 346.883 200.294L345.702 200.692C341.764 201.886 335.858 203.61 335.596 207.854C335.727 209.578 336.777 211.036 338.352 211.434C339.402 211.832 340.583 211.965 341.633 211.832C342.552 211.7 343.339 211.7 344.127 211.7C344.652 211.7 345.046 212.097 345.046 212.495C345.046 213.026 344.783 213.424 344.258 213.556C343.471 213.689 342.552 213.689 341.633 213.822C339.796 213.954 337.958 214.485 336.383 215.546C335.202 216.474 334.414 217.8 334.152 219.259C334.021 220.187 334.283 221.116 334.808 221.779C335.596 222.574 336.514 223.105 337.564 223.237C339.402 223.768 341.239 223.901 343.077 223.635C343.864 223.503 344.521 223.237 345.308 223.105C345.833 222.972 346.227 223.37 346.358 223.768C346.489 224.298 346.227 224.696 345.702 224.829C344.652 225.227 343.996 225.359 343.208 225.492Z" fill="#231F20"/>
<path d="M292.808 144.462C281.521 144.462 279.814 141.279 279.552 140.616C279.421 140.086 279.683 139.555 280.208 139.422C280.733 139.29 281.258 139.555 281.389 140.086C281.389 140.086 282.964 143.003 295.171 142.473C296.352 142.605 297.533 141.942 298.189 140.881C301.077 135.179 290.052 116.214 285.589 109.451C285.327 109.053 285.458 108.39 285.852 108.124C286.246 107.859 286.902 107.992 287.164 108.39C288.871 111.042 303.833 133.985 299.896 141.81C298.977 143.534 297.139 144.595 295.302 144.462C294.383 144.329 293.596 144.462 292.808 144.462Z" fill="#231F20"/>
<path d="M348.72 121.121C353.214 121.121 356.857 114.827 356.857 107.063C356.857 99.2997 353.214 93.0059 348.72 93.0059C344.226 93.0059 340.583 99.2997 340.583 107.063C340.583 114.827 344.226 121.121 348.72 121.121Z" fill="#D1D3D4"/>
<path d="M249.365 118.334C252.772 118.334 255.534 113.287 255.534 107.062C255.534 100.836 252.772 95.7891 249.365 95.7891C245.958 95.7891 243.196 100.836 243.196 107.062C243.196 113.287 245.958 118.334 249.365 118.334Z" fill="#231F20"/>
</svg>
