<svg width="395" height="336" viewBox="0 0 395 336" fill="none" xmlns="http://www.w3.org/2000/svg">
<path d="M64.387 2.49414H335.487C342.487 2.49414 348.187 7.90098 348.187 14.5409V321.118C348.187 327.758 342.487 333.164 335.487 333.164H64.387C57.387 333.164 51.687 327.758 51.687 321.118V14.5409C51.687 7.90098 57.387 2.49414 64.387 2.49414Z" fill="white"/>
<path d="M334.387 335.535H65.587C56.587 335.535 49.287 328.611 49.187 319.979V15.6784C49.187 7.14133 56.487 0.216797 65.587 0.216797H334.387C343.387 0.216797 350.687 7.14133 350.787 15.6784V320.074C350.687 328.611 343.387 335.535 334.387 335.535ZM65.587 4.86477C59.287 4.86477 54.287 9.70246 54.287 15.5836V319.979C54.287 325.955 59.387 330.697 65.587 330.792H334.387C340.687 330.792 345.687 325.955 345.787 319.979V15.6784C345.787 9.70246 340.687 4.95963 334.387 4.95963H65.587V4.86477Z" fill="#093F68"/>
<path d="M65.887 2.49414H333.987C341.787 2.49414 348.187 8.56497 348.187 15.9638V38.5397H51.687V15.9638C51.687 8.56497 58.087 2.49414 65.887 2.49414Z" fill="#D83231"/>
<path d="M348.187 40.9103H51.687C50.287 40.9103 49.187 39.8669 49.187 38.5389V15.6784C49.187 7.14133 56.487 0.216797 65.587 0.216797H334.387C343.387 0.216797 350.687 7.14133 350.787 15.6784V38.6338C350.687 39.8669 349.587 41.0052 348.187 40.9103C348.187 41.0052 348.187 41.0052 348.187 40.9103ZM54.187 36.1675H345.687V15.6784C345.687 9.70246 340.587 4.95963 334.287 4.95963H65.587C59.287 4.95963 54.287 9.79732 54.287 15.6784L54.187 36.1675Z" fill="#D83231"/>
<path d="M76.887 25.6392C80.3112 25.6392 83.087 23.0061 83.087 19.7581C83.087 16.51 80.3112 13.877 76.887 13.877C73.4629 13.877 70.687 16.51 70.687 19.7581C70.687 23.0061 73.4629 25.6392 76.887 25.6392Z" fill="#FAFAFA"/>
<path d="M93.9871 25.6392C97.4113 25.6392 100.187 23.0061 100.187 19.7581C100.187 16.51 97.4113 13.877 93.9871 13.877C90.5629 13.877 87.7871 16.51 87.7871 19.7581C87.7871 23.0061 90.5629 25.6392 93.9871 25.6392Z" fill="#FAFAFA"/>
<path d="M111.087 25.6392C114.511 25.6392 117.287 23.0061 117.287 19.7581C117.287 16.51 114.511 13.877 111.087 13.877C107.663 13.877 104.887 16.51 104.887 19.7581C104.887 23.0061 107.663 25.6392 111.087 25.6392Z" fill="#FAFAFA"/>
<path d="M199.187 65.0983H75.7871C74.3871 65.0983 73.2871 64.0549 73.2871 62.7269C73.2871 61.3989 74.3871 60.3555 75.7871 60.3555H199.087C200.487 60.3555 201.587 61.3989 201.587 62.7269C201.587 64.0549 200.487 65.0983 199.187 65.0983Z" fill="#DFEAEF"/>
<path d="M250.887 65.0983H225.887C224.487 65.0983 223.387 64.0549 223.387 62.7269C223.387 61.3989 224.487 60.3555 225.887 60.3555H250.887C252.287 60.3555 253.387 61.3989 253.387 62.7269C253.387 64.0549 252.287 65.0983 250.887 65.0983Z" fill="#DFEAEF"/>
<path d="M151.887 94.5046H76.9868C75.5868 94.5046 74.4868 93.4611 74.4868 92.1331C74.4868 90.8051 75.5868 89.7617 76.9868 89.7617H151.887C153.287 89.7617 154.387 90.8051 154.387 92.1331C154.387 93.4611 153.187 94.5046 151.887 94.5046Z" fill="#DFEAEF"/>
<path d="M151.887 197.614H125.887C124.487 197.614 123.387 196.571 123.387 195.243C123.387 193.915 124.487 192.871 125.887 192.871H151.887C153.287 192.871 154.387 193.915 154.387 195.243C154.387 196.571 153.187 197.614 151.887 197.614Z" fill="#DFEAEF"/>
<path d="M151.887 222.37H134.987C133.587 222.37 132.487 221.326 132.487 219.998C132.487 218.67 133.587 217.627 134.987 217.627H151.887C153.287 217.627 154.387 218.67 154.387 219.998C154.387 221.326 153.187 222.37 151.887 222.37Z" fill="#DFEAEF"/>
<path d="M316.087 65.0983H273.987C272.587 65.0983 271.487 64.0549 271.487 62.7269C271.487 61.3989 272.587 60.3555 273.987 60.3555H316.087C317.487 60.3555 318.587 61.3989 318.587 62.7269C318.587 64.0549 317.487 65.0983 316.087 65.0983Z" fill="#DFEAEF"/>
<path d="M9.48692 114.992H155.187C156.487 114.992 157.587 116.036 157.587 117.269V161.757C157.587 162.99 156.487 164.033 155.187 164.033H9.48692C8.18692 164.033 7.08691 162.99 7.08691 161.757V117.269C7.08691 116.036 8.18692 114.992 9.48692 114.992Z" fill="#FFBC0E"/>
<path d="M151.487 166.404H13.1869C8.48692 166.404 4.68691 162.799 4.58691 158.341V120.683C4.58691 116.225 8.38692 112.525 13.1869 112.525H151.587C156.287 112.525 160.187 116.13 160.187 120.683V158.341C160.087 162.799 156.187 166.404 151.487 166.404ZM13.1869 117.363C11.1869 117.363 9.58691 118.881 9.58691 120.778V158.341C9.58691 160.238 11.1869 161.756 13.1869 161.756H151.587C153.587 161.756 155.187 160.238 155.187 158.341V120.683C155.187 118.786 153.587 117.268 151.587 117.268H13.1869V117.363Z" fill="#093F68"/>
<path d="M23.5869 139.465C23.5869 137.852 23.8869 136.145 24.4869 134.627C25.0869 133.204 25.9869 131.971 27.0869 130.927C28.2869 129.884 29.5869 129.125 31.0869 128.556C34.3869 127.513 37.8869 127.513 41.1869 128.556C42.6869 129.03 43.9869 129.884 45.1869 130.927C46.2869 131.971 47.1869 133.204 47.7869 134.627C49.0869 137.757 49.0869 141.172 47.7869 144.302C47.1869 145.725 46.2869 146.958 45.1869 148.002C43.9869 149.045 42.6869 149.804 41.1869 150.373C37.8869 151.416 34.3869 151.416 31.0869 150.373C29.5869 149.899 28.2869 149.045 27.0869 148.002C25.9869 146.958 25.0869 145.725 24.4869 144.302C23.8869 142.784 23.5869 141.172 23.5869 139.465ZM28.9869 139.465C28.9869 140.413 29.1869 141.362 29.4869 142.31C29.7869 143.164 30.2869 143.923 30.9869 144.587C31.5869 145.251 32.3869 145.725 33.2869 146.104C34.2869 146.484 35.2869 146.674 36.2869 146.674C37.2869 146.674 38.2869 146.484 39.2869 146.104C40.1869 145.725 40.9869 145.251 41.5869 144.587C42.1869 143.923 42.6869 143.164 43.0869 142.31C43.7869 140.508 43.7869 138.421 43.0869 136.619C42.7869 135.765 42.2869 135.006 41.5869 134.342C40.9869 133.678 40.1869 133.204 39.2869 132.825C38.2869 132.445 37.2869 132.255 36.2869 132.255C35.2869 132.255 34.2869 132.445 33.2869 132.825C32.3869 133.204 31.6869 133.678 30.9869 134.342C30.2869 135.006 29.7869 135.765 29.4869 136.619C29.1869 137.567 28.9869 138.516 28.9869 139.465Z" fill="#093F68"/>
<path d="M54.4868 139.465C54.4868 137.852 54.7868 136.145 55.3868 134.627C55.9868 133.204 56.8868 131.971 57.9868 130.927C59.1868 129.884 60.4868 129.125 61.9868 128.556C65.2868 127.513 68.7868 127.513 72.0868 128.556C73.5868 129.03 74.8868 129.884 76.0868 130.927C77.1868 131.971 78.0868 133.204 78.6868 134.627C79.9868 137.757 79.9868 141.172 78.6868 144.302C78.0868 145.725 77.1868 146.958 76.0868 148.002C74.8868 149.045 73.5868 149.804 72.0868 150.373C68.7868 151.416 65.2868 151.416 61.9868 150.373C60.4868 149.899 59.1868 149.045 57.9868 148.002C56.8868 146.958 55.9868 145.725 55.3868 144.302C54.7868 142.784 54.4868 141.172 54.4868 139.465ZM59.7868 139.465C59.7868 140.413 59.9868 141.362 60.2868 142.31C60.5868 143.164 61.0868 143.923 61.7868 144.587C62.3868 145.251 63.1868 145.725 64.0868 146.104C65.9868 146.768 68.1868 146.768 70.0868 146.104C70.9868 145.725 71.7868 145.251 72.3868 144.587C72.9868 143.923 73.4868 143.164 73.8868 142.31C74.5868 140.508 74.5868 138.421 73.8868 136.619C73.5868 135.765 73.0868 135.006 72.3868 134.342C71.7868 133.678 70.9868 133.204 70.0868 132.825C68.1868 132.066 65.9868 132.066 64.0868 132.825C63.1868 133.204 62.3868 133.678 61.7868 134.342C61.0868 135.006 60.5868 135.765 60.2868 136.619C59.9868 137.567 59.7868 138.516 59.7868 139.465Z" fill="#093F68"/>
<path d="M86.5867 128.365H95.2867C96.4867 128.365 97.5867 128.46 98.6867 128.65C99.6867 128.84 100.687 129.219 101.487 129.693C102.287 130.262 102.987 130.926 103.387 131.78C103.887 132.824 104.187 133.962 104.087 135.1C104.087 136.238 103.887 137.377 103.387 138.325C102.987 139.179 102.387 139.843 101.587 140.412C100.787 140.981 99.7867 141.361 98.7867 141.55C97.6867 141.74 96.4867 141.93 95.3867 141.93H91.5867V150.562H86.3867L86.5867 128.365ZM91.6867 137.851H95.0867C95.4867 137.851 95.9867 137.851 96.3867 137.756C96.7867 137.661 97.1867 137.566 97.4867 137.377C97.7867 137.187 98.0867 136.902 98.2867 136.523C98.4867 136.143 98.5867 135.669 98.5867 135.195C98.5867 134.721 98.4867 134.246 98.1867 133.867C97.8867 133.487 97.5867 133.203 97.0867 133.108C96.5867 132.918 96.1867 132.824 95.6867 132.729C95.1867 132.634 94.6867 132.634 94.1867 132.634H91.5867L91.6867 137.851Z" fill="#093F68"/>
<path d="M122.287 133.868C121.887 133.393 121.287 132.919 120.587 132.729C119.987 132.54 119.287 132.35 118.587 132.35C118.187 132.35 117.787 132.445 117.487 132.445C117.087 132.54 116.687 132.635 116.387 132.824C116.087 133.014 115.787 133.204 115.487 133.488C115.287 133.773 115.187 134.152 115.187 134.532C115.187 135.101 115.487 135.765 115.987 136.049C116.587 136.429 117.287 136.808 117.987 136.998C118.787 137.283 119.687 137.472 120.587 137.757C121.487 138.041 122.387 138.326 123.187 138.8C123.987 139.275 124.687 139.939 125.187 140.603C125.787 141.551 126.087 142.595 125.987 143.733C125.987 144.871 125.787 145.914 125.287 146.958C124.787 147.812 124.087 148.665 123.287 149.234C122.387 149.804 121.487 150.278 120.387 150.562C119.287 150.847 118.087 151.037 116.887 151.037C115.487 151.037 113.987 150.847 112.687 150.373C111.287 149.898 110.087 149.14 109.087 148.286L112.787 144.492C113.287 145.156 113.987 145.725 114.787 146.009C115.587 146.389 116.387 146.579 117.287 146.579C117.687 146.579 118.187 146.578 118.587 146.484C118.987 146.389 119.387 146.294 119.687 146.104C119.987 145.915 120.287 145.725 120.487 145.345C120.687 145.061 120.787 144.681 120.787 144.302C120.787 143.638 120.487 143.069 119.987 142.689C119.387 142.31 118.687 141.931 117.987 141.741C117.187 141.456 116.287 141.172 115.387 140.887C114.487 140.603 113.587 140.223 112.787 139.749C111.987 139.275 111.287 138.705 110.787 137.947C110.187 137.093 109.887 136.049 109.987 135.006C109.887 132.919 110.987 130.927 112.687 129.599C113.587 128.935 114.487 128.556 115.587 128.271C116.687 127.987 117.787 127.797 118.887 127.797C120.187 127.797 121.487 127.987 122.687 128.366C123.887 128.745 125.087 129.315 125.987 130.168L122.287 133.868Z" fill="#093F68"/>
<path d="M134.887 147.906C134.887 147.147 135.187 146.388 135.787 145.819C136.087 145.534 136.387 145.345 136.787 145.25C137.187 145.06 137.587 145.06 137.987 145.06C138.387 145.06 138.787 145.155 139.187 145.25C139.587 145.345 139.887 145.629 140.187 145.819C140.787 146.388 141.087 147.147 141.087 147.906C141.087 148.285 140.987 148.665 140.887 149.044C140.787 149.423 140.487 149.708 140.287 149.993C139.987 150.277 139.687 150.467 139.287 150.562C138.887 150.751 138.487 150.751 138.087 150.751C137.687 150.751 137.287 150.657 136.887 150.562C136.487 150.467 136.187 150.182 135.887 149.993C135.587 149.708 135.387 149.423 135.287 149.044C134.987 148.665 134.887 148.285 134.887 147.906ZM140.487 143.258H135.487V128.365H140.487V143.258Z" fill="#093F68"/>
<path d="M157.387 294.935H9.68692C5.78692 294.935 2.58691 291.9 2.58691 288.2C2.58691 286.777 3.08692 285.45 3.98692 284.216L77.8869 188.032C80.1869 184.996 84.5869 184.332 87.7869 186.609C88.3869 186.988 88.8869 187.557 89.2869 188.032L163.187 284.216C165.487 287.252 164.787 291.425 161.587 293.607C160.387 294.461 158.887 294.935 157.387 294.935Z" fill="#FFBC0E"/>
<path d="M157.387 297.307H9.68692C4.38692 297.307 0.0869141 293.228 0.0869141 288.2C0.0869141 286.303 0.686913 284.406 1.88691 282.794L75.7869 186.609C78.8869 182.53 84.8869 181.676 89.1869 184.617C89.9869 185.186 90.6869 185.85 91.2869 186.609L165.187 282.794C168.287 286.872 167.387 292.564 163.087 295.504C161.487 296.737 159.487 297.307 157.387 297.307ZM83.5869 187.747C82.0869 187.747 80.6869 188.411 79.8869 189.549L5.98692 285.639C4.48692 287.536 4.98692 290.287 6.98692 291.71C7.78692 292.279 8.68692 292.564 9.68692 292.564H157.487C159.987 292.564 162.087 290.572 162.087 288.2C162.087 287.252 161.787 286.398 161.187 285.639L87.2869 189.549C86.3869 188.411 84.9869 187.747 83.5869 187.747Z" fill="#093F68"/>
<path d="M391.987 295.815H183.487V123.271L213.587 88.6484H391.987V295.815Z" fill="white"/>
<path d="M391.987 298.186H183.487C182.087 298.186 180.987 297.143 180.987 295.815V123.271C180.987 122.701 181.187 122.227 181.587 121.753L211.687 87.0353C212.187 86.4662 212.887 86.1816 213.587 86.1816H391.987C393.387 86.1816 394.487 87.2251 394.487 88.5531V295.815C394.487 297.143 393.387 298.186 391.987 298.186C391.987 298.281 391.987 298.281 391.987 298.186ZM185.987 293.443H389.487V91.0193H214.787L185.987 124.124V293.443Z" fill="#093F68"/>
<path d="M225.887 180.469C224.487 180.469 223.387 179.426 223.387 178.098C223.387 177.434 223.687 176.865 224.087 176.485L255.987 146.036C256.987 145.088 258.487 145.088 259.487 145.941C260.487 146.89 260.487 148.313 259.587 149.261C259.587 149.261 259.587 149.261 259.487 149.356L227.587 179.805C227.287 180.185 226.587 180.469 225.887 180.469Z" fill="#093F68"/>
<path d="M257.888 180.469C257.188 180.469 256.587 180.184 256.087 179.805L224.188 149.356C223.188 148.407 223.188 146.889 224.188 146.036C225.188 145.087 226.788 145.087 227.688 146.036L259.587 176.485C260.587 177.433 260.587 178.951 259.587 179.805C259.187 180.184 258.588 180.469 257.888 180.469Z" fill="#093F68"/>
<path d="M324.287 180.469C323.587 180.469 322.987 180.185 322.487 179.805C321.487 178.857 321.487 177.339 322.487 176.485L354.387 146.036C355.387 145.088 356.887 145.088 357.887 145.941C358.887 146.89 358.887 148.313 357.987 149.261C357.987 149.261 357.987 149.261 357.887 149.356L325.987 179.805C325.587 180.185 324.987 180.469 324.287 180.469Z" fill="#093F68"/>
<path d="M356.187 180.469C355.487 180.469 354.887 180.185 354.387 179.805L322.487 149.356C321.487 148.408 321.487 146.985 322.387 146.036C323.387 145.088 324.887 145.088 325.887 145.941C325.887 145.941 325.887 145.941 325.987 146.036L357.887 176.485C358.887 177.434 358.887 178.952 357.887 179.805C357.487 180.185 356.887 180.469 356.187 180.469Z" fill="#093F68"/>
<path d="M183.487 123.271H213.287L213.587 88.6484L183.487 123.271Z" fill="white"/>
<path d="M213.287 125.642H183.487C182.487 125.642 181.587 125.073 181.187 124.314C180.787 123.46 180.887 122.512 181.487 121.848L211.687 87.1304C212.587 86.0869 214.187 85.9921 215.187 86.8458C215.787 87.3201 216.087 87.9841 216.087 88.7429L215.787 123.46C215.787 124.599 214.687 125.642 213.287 125.642ZM188.787 120.899H210.787L210.987 95.288L188.787 120.899Z" fill="#093F68"/>
<path d="M53.8687 266.71L47.98 265.326L49.9136 248.979H68.6123V254.735H55.9561L55.231 261.085C55.5825 260.88 56.1758 260.639 57.0107 260.36C57.8604 260.067 58.7979 259.921 59.8232 259.921C61.4053 259.921 62.8042 260.163 64.02 260.646C65.2505 261.115 66.2905 261.811 67.1401 262.733C67.9897 263.642 68.627 264.762 69.0518 266.095C69.4912 267.428 69.7109 268.952 69.7109 270.666C69.7109 272.042 69.4839 273.375 69.0298 274.665C68.5903 275.939 67.9092 277.089 66.9863 278.114C66.0781 279.125 64.9282 279.931 63.5366 280.531C62.145 281.117 60.4971 281.41 58.5928 281.41C57.1719 281.41 55.7876 281.19 54.4399 280.751C53.0923 280.312 51.8765 279.682 50.7925 278.861C49.7231 278.026 48.8735 277.023 48.2437 275.851C47.6284 274.665 47.3281 273.339 47.3428 271.874H54.7915C54.8354 272.65 55.0186 273.324 55.3408 273.896C55.6631 274.467 56.0952 274.914 56.6372 275.236C57.1938 275.543 57.8311 275.697 58.5488 275.697C59.2812 275.697 59.8892 275.551 60.3726 275.258C60.856 274.965 61.2368 274.562 61.5151 274.049C61.7935 273.537 61.9912 272.951 62.1084 272.292C62.2256 271.618 62.2842 270.907 62.2842 270.16C62.2842 269.369 62.1963 268.659 62.0205 268.029C61.8594 267.399 61.5957 266.864 61.2295 266.425C60.8633 265.971 60.3872 265.626 59.8013 265.392C59.23 265.158 58.5415 265.041 57.7358 265.041C56.6665 265.041 55.8242 265.224 55.209 265.59C54.5938 265.956 54.147 266.33 53.8687 266.71ZM95.8584 262.052V267.897C95.8584 270.197 95.5874 272.196 95.0454 273.896C94.5181 275.595 93.7563 277.001 92.7603 278.114C91.7788 279.228 90.6069 280.055 89.2446 280.597C87.8823 281.139 86.3809 281.41 84.7402 281.41C83.4219 281.41 82.1914 281.242 81.0488 280.905C79.9062 280.553 78.8735 280.026 77.9507 279.323C77.0425 278.605 76.2588 277.711 75.5996 276.642C74.9404 275.573 74.4351 274.313 74.0835 272.863C73.7319 271.398 73.5562 269.743 73.5562 267.897V262.052C73.5562 259.738 73.8198 257.738 74.3472 256.054C74.8892 254.354 75.6582 252.948 76.6543 251.835C77.6504 250.722 78.8296 249.894 80.1919 249.352C81.5542 248.81 83.0557 248.539 84.6963 248.539C86.0146 248.539 87.2378 248.715 88.3657 249.066C89.5083 249.403 90.541 249.931 91.4639 250.648C92.3867 251.352 93.1704 252.238 93.8149 253.307C94.4741 254.376 94.9795 255.644 95.3311 257.108C95.6826 258.559 95.8584 260.207 95.8584 262.052ZM88.4536 268.798V261.107C88.4536 260.082 88.395 259.188 88.2778 258.427C88.1753 257.665 88.0142 257.021 87.7944 256.493C87.5894 255.966 87.333 255.541 87.0254 255.219C86.7178 254.882 86.3662 254.64 85.9707 254.494C85.5898 254.333 85.165 254.252 84.6963 254.252C84.1104 254.252 83.583 254.376 83.1143 254.625C82.6602 254.86 82.272 255.241 81.9497 255.768C81.6274 256.295 81.3784 256.999 81.2026 257.877C81.0415 258.756 80.9609 259.833 80.9609 261.107V268.798C80.9609 269.838 81.0122 270.746 81.1147 271.522C81.2319 272.284 81.3931 272.936 81.5981 273.478C81.8179 274.005 82.0815 274.438 82.3892 274.774C82.6968 275.097 83.0483 275.331 83.4438 275.478C83.8394 275.624 84.2715 275.697 84.7402 275.697C85.3115 275.697 85.8242 275.58 86.2783 275.346C86.7324 275.111 87.1206 274.73 87.4429 274.203C87.7798 273.661 88.0288 272.951 88.1899 272.072C88.3657 271.178 88.4536 270.087 88.4536 268.798ZM121.962 262.052V267.897C121.962 270.197 121.691 272.196 121.149 273.896C120.622 275.595 119.86 277.001 118.864 278.114C117.882 279.228 116.71 280.055 115.348 280.597C113.986 281.139 112.484 281.41 110.844 281.41C109.525 281.41 108.295 281.242 107.152 280.905C106.01 280.553 104.977 280.026 104.054 279.323C103.146 278.605 102.362 277.711 101.703 276.642C101.044 275.573 100.539 274.313 100.187 272.863C99.8354 271.398 99.6597 269.743 99.6597 267.897V262.052C99.6597 259.738 99.9233 257.738 100.451 256.054C100.993 254.354 101.762 252.948 102.758 251.835C103.754 250.722 104.933 249.894 106.295 249.352C107.658 248.81 109.159 248.539 110.8 248.539C112.118 248.539 113.341 248.715 114.469 249.066C115.612 249.403 116.645 249.931 117.567 250.648C118.49 251.352 119.274 252.238 119.918 253.307C120.578 254.376 121.083 255.644 121.435 257.108C121.786 258.559 121.962 260.207 121.962 262.052ZM114.557 268.798V261.107C114.557 260.082 114.499 259.188 114.381 258.427C114.279 257.665 114.118 257.021 113.898 256.493C113.693 255.966 113.437 255.541 113.129 255.219C112.821 254.882 112.47 254.64 112.074 254.494C111.693 254.333 111.269 254.252 110.8 254.252C110.214 254.252 109.687 254.376 109.218 254.625C108.764 254.86 108.375 255.241 108.053 255.768C107.731 256.295 107.482 256.999 107.306 257.877C107.145 258.756 107.064 259.833 107.064 261.107V268.798C107.064 269.838 107.116 270.746 107.218 271.522C107.335 272.284 107.497 272.936 107.702 273.478C107.921 274.005 108.185 274.438 108.493 274.774C108.8 275.097 109.152 275.331 109.547 275.478C109.943 275.624 110.375 275.697 110.844 275.697C111.415 275.697 111.928 275.58 112.382 275.346C112.836 275.111 113.224 274.73 113.546 274.203C113.883 273.661 114.132 272.951 114.293 272.072C114.469 271.178 114.557 270.087 114.557 268.798Z" fill="#093F68"/>
<path d="M234.551 230.41C251.13 218.279 295.614 201.295 340.923 230.41" stroke="#093F68" stroke-width="5" stroke-linecap="round"/>
</svg>
