<svg width="34" height="28" viewBox="0 0 34 28" fill="none" xmlns="http://www.w3.org/2000/svg">
<path d="M15.7904 18.6451H16.9399V19.8709H15.4879L15.0645 18.9677V18.5161L15.8509 17.7419V14.3871L15.125 13.7036V13.0967H19.0573L19.4808 13.5484L19.0573 13.9355V14.5161L20.2068 13.2903V13.0967H22.5057L23.1712 13.8064H23.2317V14.129H23.1712L21.2353 16.258L23.7762 18.9032H24.0182V19.4193L23.7762 19.8709H19.9648L19.2993 19.1613V18.7097L19.5413 18.1935V17.9355L19.0573 17.4193V18.258L19.1783 18.3871V18.7097L18.6338 19.8709H16.9636V18.6451H18.3919V18.5161L18.1499 18.3226V16.7097H18.5733L20.0858 18.3226V18.6451H22.4452V18.3871H22.2032L19.7833 15.8709V15.6129L22.0217 13.4193V13.2903H20.3883L18.8153 14.9677H18.3314L18.1499 14.8387V13.8064L18.5733 13.4838V13.2903H15.7299V13.4838L16.0324 13.7036V18.3226L15.7904 18.5161V18.6451Z" fill="#E53935"/>
<path d="M16.4825 26.129V28H33.0925L34 27.0323L23.3523 1.41935H22.3843L20.6299 4.3871H20.4484L17.7865 0H16.8185L14.4591 4.45161L12.5231 1.41935H12.4626H11.7367L0 26.2581L1.20996 28H16.4555V26.129L0.483986 26.0645L11.6157 2.3871L13.9146 5.93548H14.1566L16.758 0.709677L19.8434 6H20.0249L22.0214 2.51613H22.2633L31.7011 26.129H16.4825Z" fill="#E53935"/>
<path d="M10.2244 18.6451H11.4948L11.4948 19.8064H10.3454L9.86137 18.9677V18.5161L10.4059 18V14.258L9.86137 13.6774H9.7749V13.0967H12.8863L13.7938 14.0645H13.9753V14.4086H13.6123V18.0645L13.9148 18.3226V18.7097L13.4308 19.8064H11.5272V18.6451H12.7048V18.5806V18.4516L12.4628 18.258V13.6774L12.7048 13.4838V13.3548H10.1639V13.4838L10.5874 13.8064V18.129L10.2244 18.6451Z" fill="#E53935"/>
</svg>
