<svg width="190" height="133" viewBox="0 0 190 133" fill="none" xmlns="http://www.w3.org/2000/svg">
<path d="M175.958 8.89796V91.7896C175.958 96.0479 172.409 99.4836 168.009 99.4836H23.1282C18.7288 99.4836 15.1793 96.0479 15.1793 91.7896V8.89796C15.1793 4.63966 18.7288 1.20398 23.1282 1.20398H168.009C172.409 1.20398 175.958 4.63966 175.958 8.89796Z" fill="white"/>
<path d="M168.009 100.258H23.1282C18.2788 100.258 14.3793 96.435 14.3793 91.7896V8.89796C14.3793 4.20415 18.3288 0.429749 23.1282 0.429749H168.009C172.858 0.429749 176.758 4.20415 176.758 8.89796V91.7896C176.758 96.4834 172.858 100.258 168.009 100.258ZM23.1282 1.97822C19.1787 1.97822 15.9791 5.07517 15.9791 8.89796V91.7896C15.9791 95.6124 19.1787 98.7094 23.1282 98.7094H168.009C171.959 98.7094 175.158 95.6124 175.158 91.7896V8.89796C175.158 5.07517 171.959 1.97822 168.009 1.97822H23.1282Z" fill="#093F68"/>
<path d="M163.91 52.6907V56.1263C163.91 59.804 160.81 62.8041 157.011 62.8041H34.1268C30.3273 62.8041 27.2277 59.804 27.2277 56.1263V52.6907C27.2277 49.013 30.3273 46.0129 34.1268 46.0129H156.961C160.81 46.0129 163.91 49.013 163.91 52.6907Z" fill="white"/>
<path d="M157.011 63.5784H34.1268C29.8773 63.5784 26.4278 60.2395 26.4278 56.1263V52.6907C26.4278 48.5775 29.8773 45.2386 34.1268 45.2386H156.961C161.21 45.2386 164.66 48.5775 164.66 52.6907V56.1263C164.71 60.2879 161.26 63.6268 157.011 63.5784ZM34.1268 46.7871C30.7772 46.7871 28.0776 49.4486 28.0776 52.6907V56.1263C28.0776 59.3685 30.8272 62.0299 34.1768 62.0299H157.011C160.36 62.0299 163.11 59.4168 163.11 56.1263V52.6907C163.11 49.4486 160.36 46.7871 157.011 46.7871H34.1268Z" fill="#093F68"/>
<path d="M175.958 8.89796V16.2048H15.1793V8.89796C15.1793 4.63966 18.7288 1.20398 23.1282 1.20398H168.009C172.409 1.20398 175.958 4.63966 175.958 8.89796Z" fill="#68E1FD"/>
<path d="M175.958 16.979H15.1792C14.7293 16.979 14.3793 16.6403 14.3793 16.2048V8.89796C14.3793 4.20415 18.3288 0.429749 23.1282 0.429749H168.009C172.858 0.429749 176.758 4.20415 176.758 8.89796V16.2048C176.758 16.6403 176.408 16.979 175.958 16.979ZM16.0291 15.4306H175.158V8.89796C175.158 5.07517 171.959 1.97822 168.009 1.97822H23.1282C19.1787 1.97822 15.9791 5.07517 15.9791 8.89796L16.0291 15.4306Z" fill="#093F68"/>
<path d="M25.0279 10.0108C26.1047 10.0108 26.9777 9.16592 26.9777 8.12365C26.9777 7.08138 26.1047 6.23645 25.0279 6.23645C23.9511 6.23645 23.0782 7.08138 23.0782 8.12365C23.0782 9.16592 23.9511 10.0108 25.0279 10.0108Z" fill="#F56132"/>
<path d="M32.127 10.0108C33.2038 10.0108 34.0767 9.16592 34.0767 8.12365C34.0767 7.08138 33.2038 6.23645 32.127 6.23645C31.0502 6.23645 30.1772 7.08138 30.1772 8.12365C30.1772 9.16592 31.0502 10.0108 32.127 10.0108Z" fill="#093F68"/>
<path d="M39.2261 10.0108C40.3029 10.0108 41.1758 9.16592 41.1758 8.12365C41.1758 7.08138 40.3029 6.23645 39.2261 6.23645C38.1492 6.23645 37.2763 7.08138 37.2763 8.12365C37.2763 9.16592 38.1492 10.0108 39.2261 10.0108Z" fill="#093F68"/>
<path d="M163.91 52.6907V56.1263C163.91 59.804 160.81 62.8041 157.011 62.8041H143.612V46.0129H157.011C160.81 46.0129 163.91 49.013 163.91 52.6907Z" fill="#70CC40"/>
<path d="M157.011 63.5784H143.612C143.162 63.5784 142.812 63.2396 142.812 62.8041V46.0129C142.812 45.5774 143.162 45.2386 143.612 45.2386H157.011C161.26 45.2386 164.709 48.5775 164.709 52.6907V56.1263C164.709 60.2879 161.26 63.5784 157.011 63.5784ZM144.462 62.0299H157.011C160.36 62.0299 163.11 59.4168 163.11 56.1263V52.6907C163.11 49.4486 160.36 46.7871 157.011 46.7871H144.462V62.0299Z" fill="#093F68"/>
<path d="M151.561 58.0135C148.562 58.0135 146.162 55.6908 146.162 52.7874C146.162 49.8841 148.562 47.5613 151.561 47.5613C153.011 47.5613 154.361 48.0936 155.361 49.1098C157.46 51.1422 157.46 54.4327 155.361 56.5134C154.411 57.4812 153.011 58.0619 151.561 58.0135ZM151.561 49.1582C149.462 49.1582 147.812 50.8035 147.812 52.8358C147.812 54.8682 149.512 56.4651 151.611 56.4651C153.711 56.4651 155.361 54.8198 155.361 52.7874C155.361 51.8196 154.961 50.9002 154.261 50.2228C153.561 49.5453 152.611 49.1582 151.561 49.1582Z" fill="#093F68"/>
<path d="M158.41 60.2394C158.21 60.2394 158.01 60.1427 157.86 59.9975L154.261 56.5134C153.911 56.2231 153.911 55.7392 154.211 55.4005C154.511 55.0617 155.011 55.0617 155.361 55.3521C155.361 55.3521 155.361 55.3521 155.411 55.4005L159.01 58.8845C159.31 59.1749 159.31 59.7071 159.01 59.9975C158.86 60.1427 158.66 60.2394 158.41 60.2394Z" fill="#093F68"/>
<path d="M69.2309 82.3678L59.1636 96.1603L66.962 101.493L77.0293 87.7007L69.2309 82.3678Z" fill="#093F68"/>
<path d="M66.9724 102.29C66.8224 102.29 66.6225 102.242 66.5225 102.145L58.7235 96.8221C58.5735 96.7254 58.4235 96.5318 58.3735 96.3382C58.3236 96.1447 58.3735 95.9027 58.5235 95.7576L68.6222 81.9181C68.8722 81.5794 69.3721 81.4826 69.772 81.7246L77.571 87.0474C77.921 87.2894 78.0209 87.7733 77.771 88.1604L67.6723 101.951C67.4723 102.145 67.2224 102.29 66.9724 102.29ZM60.2733 95.9995L66.7724 100.403L75.8712 87.9184L69.3721 83.515L60.2733 95.9995Z" fill="#093F68"/>
<path d="M75.0072 70.172L64.9399 83.9645L76.903 92.1453L86.9703 78.3529L75.0072 70.172Z" fill="#68E1FD"/>
<path d="M76.9211 92.9025C76.7711 92.9025 76.5711 92.8541 76.4712 92.7573L64.4727 84.5795C64.1228 84.3375 64.0228 83.8536 64.2728 83.4665L74.3214 69.6754C74.5714 69.3367 75.0713 69.2399 75.4713 69.4819L87.4197 77.6598C87.7697 77.9017 87.8697 78.3856 87.6197 78.7727L77.571 92.6122C77.471 92.8057 77.271 92.9025 77.0211 92.9509C77.0211 92.9025 76.9711 92.9025 76.9211 92.9025ZM66.0725 83.7568L76.7211 91.0153L85.8199 78.5308L75.1713 71.2723L66.0725 83.7568Z" fill="#093F68"/>
<path d="M60.0234 93.8704L68.8222 99.9191C69.6721 100.5 69.8721 101.661 69.2722 102.532L48.4249 131.082C47.825 131.905 46.6252 132.098 45.7253 131.518L36.9264 125.469C36.0765 124.888 35.8766 123.727 36.4765 122.856L57.3237 94.3059C57.9737 93.4832 59.1735 93.2897 60.0234 93.8704Z" fill="#68E1FD"/>
<path d="M46.6251 132.195C45.8252 132.195 45.0253 131.953 44.3754 131.518L37.5263 126.824C35.7266 125.614 35.3266 123.243 36.5765 121.549C36.5765 121.549 36.5765 121.549 36.5765 121.501L56.0239 94.8382C57.2737 93.0962 59.7234 92.7091 61.5232 93.9188L68.3723 98.6126C70.172 99.8224 70.572 102.193 69.3221 103.935L49.8747 130.55C49.1248 131.566 47.925 132.147 46.6251 132.195ZM45.3253 130.211C46.3752 130.937 47.825 130.695 48.5249 129.679L67.9723 103.016C68.7222 102 68.4722 100.597 67.4224 99.9192L60.5733 95.2253C59.5234 94.4995 58.0736 94.7414 57.3737 95.7576L37.9263 122.42C37.1764 123.437 37.4263 124.84 38.4762 125.517L45.3253 130.211Z" fill="#093F68"/>
<path d="M114.366 28.4958C98.8183 17.85 77.3211 21.4309 66.3725 36.4801C55.424 51.5293 59.0735 72.3369 74.6215 82.9342C90.1694 93.5316 111.667 89.9991 122.615 74.9499C133.614 59.9007 129.914 39.1415 114.366 28.4958ZM81.2206 73.9337C70.872 66.8204 68.3723 52.9326 75.7213 42.9159C83.0703 32.8992 97.4184 30.4797 107.767 37.593C118.116 44.7063 120.615 58.5942 113.266 68.6109C105.967 78.6275 91.6192 81.047 81.2206 73.9337Z" fill="#68E1FD"/>
<path d="M94.4189 89.854C74.9214 89.8057 59.1735 74.5145 59.2235 55.6425C59.2735 36.7705 75.0714 21.5277 94.5688 21.5761C101.818 21.5761 108.917 23.7536 114.816 27.8184C130.714 38.7061 134.514 59.9976 123.265 75.3855C117.866 82.7891 109.667 87.7733 100.468 89.3218C98.4683 89.7089 96.4686 89.854 94.4189 89.854ZM94.5688 23.173C76.0213 23.173 60.9733 37.7383 60.9233 55.6909C60.8733 73.6435 75.9713 88.2088 94.5188 88.2572C113.066 88.2572 128.114 73.6919 128.164 55.7393C128.164 45.1419 122.865 35.222 113.916 29.1249C108.267 25.3021 101.518 23.2214 94.5688 23.173ZM94.4689 78.7728C81.3206 78.7244 70.672 68.4174 70.722 55.6909C70.772 42.9644 81.4206 32.6574 94.5688 32.7057C107.717 32.7541 118.366 43.0612 118.316 55.7877C118.316 60.5299 116.766 65.1753 113.966 69.0465C109.517 75.1919 102.218 78.8212 94.4689 78.7728ZM94.5188 34.2542C82.2705 34.2542 72.3218 43.8354 72.3218 55.6909C72.3218 67.5464 82.2205 77.1759 94.4689 77.1759C106.717 77.1759 116.666 67.5948 116.666 55.7393C116.666 48.7711 113.166 42.1901 107.267 38.1738C103.568 35.6091 99.1182 34.2542 94.5188 34.2542Z" fill="#093F68"/>
<path d="M117.206 59.2864C119.241 47.1516 110.727 35.7178 98.1897 33.7484C85.6527 31.7789 73.84 40.0197 71.8053 52.1546C69.7706 64.2894 78.2845 75.7232 90.8215 77.6926C103.359 79.6621 115.171 71.4213 117.206 59.2864Z" fill="white"/>
<path d="M94.4688 78.7728C81.3206 78.7244 70.672 68.4174 70.722 55.6909C70.772 42.9644 81.4206 32.6573 94.5688 32.7057C107.717 32.7541 118.366 43.0611 118.316 55.7877C118.316 60.5298 116.766 65.1753 113.966 69.0464C109.517 75.1919 102.218 78.8212 94.4688 78.7728ZM94.5188 34.2542C82.2704 34.2542 72.3718 43.8354 72.3718 55.6909C72.3718 67.5464 82.2704 77.1275 94.5188 77.1275C106.767 77.1275 116.666 67.5464 116.666 55.6909C116.666 48.7227 113.166 42.1901 107.267 38.1738C103.568 35.6091 99.1182 34.2542 94.5188 34.2542Z" fill="#093F68"/>
<path d="M3.53078 75.0468H37.7263C39.0761 75.0468 40.176 76.1113 40.176 77.4179V103.742C40.176 105.048 39.0761 106.113 37.7263 106.113H3.53078C2.18096 106.113 1.08111 105.048 1.08111 103.742V77.4179C1.03111 76.1113 2.13097 75.0468 3.53078 75.0468Z" fill="#F56132"/>
<path d="M36.1765 106.936H5.03057C2.38092 106.936 0.231201 104.855 0.231201 102.29V78.9663C0.231201 76.4017 2.38092 74.3209 5.03057 74.3209H36.1265C38.7761 74.3209 40.9258 76.4017 40.9258 78.9663V102.29C40.9758 104.855 38.8261 106.936 36.1765 106.936ZM5.03057 75.821C3.2808 75.821 1.83099 77.2243 1.83099 78.9179V102.242C1.83099 103.935 3.2808 105.339 5.03057 105.339H36.1265C37.8762 105.339 39.326 103.935 39.326 102.242V78.9179C39.326 77.2243 37.8762 75.821 36.1265 75.821H5.03057Z" fill="#093F68"/>
<path d="M14.1293 99.4836V81.7245L30.1772 90.5799L14.1293 99.4836Z" fill="white"/>
<path d="M14.1294 100.258C13.9794 100.258 13.8294 100.21 13.7294 100.161C13.4794 100.016 13.3295 99.774 13.3295 99.4836V81.7246C13.3295 81.2891 13.6794 80.9504 14.1294 80.9504C14.2793 80.9504 14.4293 80.9988 14.5293 81.0472L30.5772 89.9025C30.9771 90.1444 31.0771 90.5799 30.8772 90.9671C30.8272 91.0638 30.7272 91.1606 30.5772 91.2574L14.5793 100.113C14.4293 100.21 14.2793 100.258 14.1294 100.258ZM14.9793 83.0795V98.1287L28.5775 90.6283L14.9793 83.0795Z" fill="#093F68"/>
<path d="M147.762 6.28485H186.807C187.756 6.28485 188.556 7.0107 188.556 7.97849V34.8832C188.556 35.8026 187.806 36.5768 186.807 36.5768H147.762C146.812 36.5768 146.012 35.851 146.012 34.8832V7.97849C146.012 7.0107 146.812 6.28485 147.762 6.28485Z" fill="#FFBC0E"/>
<path d="M185.757 37.3027H148.862C146.862 37.3027 145.262 35.7542 145.262 33.8186V8.99469C145.262 7.05909 146.862 5.51062 148.862 5.51062H185.757C187.756 5.51062 189.356 7.05909 189.356 8.99469V33.8186C189.356 35.7542 187.756 37.3027 185.757 37.3027ZM148.862 7.05909C147.762 7.05909 146.862 7.93011 146.862 8.99469V33.8186C146.862 34.8832 147.762 35.7542 148.862 35.7542H185.757C186.857 35.7542 187.756 34.8832 187.756 33.8186V8.99469C187.756 7.93011 186.857 7.05909 185.757 7.05909H148.862Z" fill="#093F68"/>
<path d="M146.012 33.3348C145.562 33.3348 145.212 32.9961 145.212 32.5606C145.212 32.367 145.262 32.1734 145.412 32.0283L158.91 17.4146C159.06 17.2694 159.26 17.1726 159.46 17.1726C159.66 17.1726 159.86 17.221 160.01 17.3662L173.958 29.4636C174.308 29.7539 174.308 30.2378 174.008 30.5766C173.708 30.9153 173.208 30.9153 172.858 30.625L159.56 19.0114L146.612 33.0445C146.462 33.238 146.262 33.3348 146.012 33.3348Z" fill="#093F68"/>
<path d="M170.659 28.399C170.209 28.399 169.859 28.0603 169.859 27.6248C169.859 27.4313 169.959 27.1893 170.109 27.0441L178.108 19.8824C178.408 19.6405 178.808 19.5921 179.108 19.8341L188.956 26.2215C189.306 26.4635 189.406 26.9474 189.206 27.2861C188.956 27.6248 188.456 27.7216 188.106 27.4796L178.758 21.4309L171.209 28.1571C171.059 28.3023 170.859 28.399 170.659 28.399Z" fill="#093F68"/>
<path d="M170.659 17.8984C172.426 17.8984 173.858 16.5119 173.858 14.8015C173.858 13.0911 172.426 11.7045 170.659 11.7045C168.892 11.7045 167.459 13.0911 167.459 14.8015C167.459 16.5119 168.892 17.8984 170.659 17.8984Z" fill="white"/>
<path d="M170.659 18.6726C168.409 18.6726 166.609 16.9306 166.609 14.7531C166.609 12.5755 168.409 10.8335 170.659 10.8335C172.908 10.8335 174.708 12.5755 174.708 14.7531C174.708 16.9306 172.908 18.6726 170.659 18.6726ZM170.659 12.4304C169.309 12.4304 168.259 13.4949 168.259 14.7531C168.259 16.0596 169.359 17.0758 170.659 17.0758C172.009 17.0758 173.058 16.0112 173.058 14.7531C173.058 13.4949 172.009 12.4787 170.659 12.4304Z" fill="#093F68"/>
<path d="M186.057 105.581H158.81V81.2407L164.56 75.8694H186.057V105.581Z" fill="white"/>
<path d="M186.057 106.355H158.81C158.36 106.355 158.01 106.016 158.01 105.581V81.2891C158.01 81.0955 158.11 80.8535 158.26 80.7084L163.96 75.3371C164.11 75.1919 164.31 75.0952 164.51 75.0952H186.057C186.507 75.0952 186.857 75.4339 186.857 75.8694V105.532C186.857 105.968 186.507 106.355 186.057 106.355ZM159.61 104.806H185.257V76.692H164.859L159.61 81.5794V104.806Z" fill="#093F68"/>
<path d="M158.81 81.2407H164.46V75.8694L158.81 81.2407Z" fill="white"/>
<path d="M164.46 82.0633H158.81C158.36 82.0633 158.01 81.7245 158.01 81.289C158.01 81.0955 158.11 80.8535 158.26 80.7083L163.91 75.3371C164.21 75.0467 164.759 75.0467 165.059 75.3371C165.209 75.4822 165.309 75.6758 165.309 75.8694V81.2406C165.309 81.6761 164.909 82.0633 164.46 82.0633ZM160.81 80.4664H163.66V77.7566L160.81 80.4664Z" fill="#093F68"/>
<path d="M181.007 86.5151H163.91C163.46 86.4667 163.11 86.0796 163.16 85.6441C163.21 85.2569 163.51 84.9666 163.91 84.9182H181.007C181.457 84.9666 181.807 85.3537 181.757 85.7892C181.707 86.1763 181.407 86.4667 181.007 86.5151Z" fill="#DFEAEF"/>
<path d="M181.007 92.5638H163.91C163.46 92.5154 163.11 92.1283 163.16 91.6928C163.21 91.3057 163.51 91.0154 163.91 90.967H181.007C181.457 91.0154 181.807 91.4025 181.757 91.838C181.707 92.2251 181.407 92.5638 181.007 92.5638Z" fill="#DFEAEF"/>
<path d="M176.908 98.6126H163.91C163.46 98.5642 163.11 98.1771 163.16 97.7416C163.21 97.3545 163.51 97.0641 163.91 97.0157H176.908C177.358 97.0641 177.708 97.4512 177.658 97.8868C177.608 98.2739 177.308 98.5642 176.908 98.6126Z" fill="#DFEAEF"/>
</svg>
